# xmcd
#
# Track frame offsets:
#	150
#	24310
#	49789
#	64069
#	80922
#	96807
#	111920
#	133047
#	152611
#	184291
#	208361
#	228739
#	254354
#	280880
#	307973
#
# Disc length: 4313 seconds
#
# Revision: 0
# Processed by: cddbd v1.5.2PL0 Copyright (c) Steve Scherf et al.
# Submitted via: EasyCDDAExtractor 16.1.0.1
#
DISCID=da10d70f
DTITLE=Pet Shop Boys - Digitaldemos
DYEAR=1900
DGENRE=
TTITLE0=Forever in Love (Original)
TTITLE1=A Red Letter Day (Original Album Version)
TTITLE2=Bubadubadum (Demo)
TTITLE3=James Bond Theme 2
TTITLE4=One More Chance (Demo)
TTITLE5=Oh Dear (Demo)
TTITLE6=Domino dancing (Demo)
TTITLE7=Don Juan (Demo)
TTITLE8=I Want A Lover (Demo)
TTITLE9=In the club or in the queue (Demo)
TTITLE10=Somewhere (Original Version)
TTITLE11=I Want to Wake Up (Demo)
TTITLE12=You know where you went wrong (Demo)
TTITLE13=I get excited (Sarm West Demo)
TTITLE14=Friendly Fire (Live at Savoy)
EXTD=
EXTT0=
EXTT1=
EXTT2=
EXTT3=
EXTT4=
EXTT5=
EXTT6=
EXTT7=
EXTT8=
EXTT9=
EXTT10=
EXTT11=
EXTT12=
EXTT13=
EXTT14=
PLAYORDER=
